<?xml version="1.0" encoding="UTF-8"?>
<svg width="1600" height="1200" xmlns="http://www.w3.org/2000/svg">
<rect width="1600" height="1200" fill="white"/>
<text x="50" y="50" font-size="24" font-family="Times New Roman" font-weight="bold">3.2.2 E-R diagram</text>
<line x1="800" y1="225" x2="800" y2="312" stroke="gray" stroke-width="1.2"/>
<text x="808" y="260.5" font-size="15" font-family="Arial" font-weight="bold">1</text>
<line x1="350" y1="350" x2="1250" y2="350" stroke="gray" stroke-width="1.2"/>
<line x1="800" y1="388" x2="800" y2="475" stroke="gray" stroke-width="1.2"/>
<text x="808" y="423.5" font-size="15" font-family="Arial" font-weight="bold">N</text>
<line x1="350" y1="350" x2="350" y2="475" stroke="gray" stroke-width="1.2"/>
<text x="358" y="404.5" font-size="15" font-family="Arial" font-weight="bold">N</text>
<line x1="1250" y1="350" x2="1250" y2="475" stroke="gray" stroke-width="1.2"/>
<text x="1258" y="404.5" font-size="15" font-family="Arial" font-weight="bold">N</text>
<line x1="350" y1="528" x2="350" y2="663" stroke="gray" stroke-width="1.2"/>
<text x="358" y="587.5" font-size="15" font-family="Arial" font-weight="bold">1</text>
<line x1="350" y1="737" x2="350" y2="872" stroke="gray" stroke-width="1.2"/>
<text x="358" y="796.5" font-size="15" font-family="Arial" font-weight="bold">N</text>
<line x1="1250" y1="528" x2="1250" y2="663" stroke="gray" stroke-width="1.2"/>
<text x="1258" y="587.5" font-size="15" font-family="Arial" font-weight="bold">1</text>
<line x1="1250" y1="737" x2="1250" y2="872" stroke="gray" stroke-width="1.2"/>
<text x="1258" y="796.5" font-size="15" font-family="Arial" font-weight="bold">N</text>
<line x1="800" y1="528" x2="800" y2="687" stroke="gray" stroke-width="1.2"/>
<text x="808" y="599.5" font-size="15" font-family="Arial" font-weight="bold">N</text>
<line x1="800" y1="763" x2="800" y2="922" stroke="gray" stroke-width="1.2"/>
<text x="808" y="834.5" font-size="15" font-family="Arial" font-weight="bold">N</text>
<line x1="350" y1="928" x2="350" y2="950" stroke="gray" stroke-width="1.2"/>
<line x1="350" y1="950" x2="537" y2="950" stroke="gray" stroke-width="1.2"/>
<text x="451.5" y="942" font-size="15" font-family="Arial" font-weight="bold">1</text>
<line x1="613" y1="950" x2="725" y2="950" stroke="gray" stroke-width="1.2"/>
<text x="677" y="942" font-size="15" font-family="Arial" font-weight="bold">1</text>
<line x1="1250" y1="928" x2="1250" y2="950" stroke="gray" stroke-width="1.2"/>
<line x1="1250" y1="950" x2="1063" y2="950" stroke="gray" stroke-width="1.2"/>
<text x="1164.5" y="942" font-size="15" font-family="Arial" font-weight="bold">1</text>
<line x1="987" y1="950" x2="875" y2="950" stroke="gray" stroke-width="1.2"/>
<text x="939" y="942" font-size="15" font-family="Arial" font-weight="bold">1</text>
<line x1="1175" y1="528" x2="1052" y2="698" stroke="gray" stroke-width="1.2"/>
<text x="1121.5" y="605" font-size="15" font-family="Arial" font-weight="bold">1</text>
<line x1="998" y1="752" x2="850" y2="922" stroke="gray" stroke-width="1.2"/>
<text x="932" y="829" font-size="15" font-family="Arial" font-weight="bold">1</text>
<polygon points="800,312 838,350 800,388 762,350" fill="white" stroke="black" stroke-width="1"/>
<text x="800" y="355" font-size="14" font-family="Arial" text-anchor="middle">has</text>
<polygon points="350,662 388,700 350,738 312,700" fill="white" stroke="black" stroke-width="1"/>
<text x="350" y="705" font-size="14" font-family="Arial" text-anchor="middle">link</text>
<polygon points="1250,662 1288,700 1250,738 1212,700" fill="white" stroke="black" stroke-width="1"/>
<text x="1250" y="705" font-size="14" font-family="Arial" text-anchor="middle">link</text>
<polygon points="800,687 838,725 800,763 762,725" fill="white" stroke="black" stroke-width="1"/>
<text x="800" y="730" font-size="14" font-family="Arial" text-anchor="middle">has</text>
<polygon points="575,912 613,950 575,988 537,950" fill="white" stroke="black" stroke-width="1"/>
<text x="575" y="955" font-size="14" font-family="Arial" text-anchor="middle">has</text>
<polygon points="1025,912 1063,950 1025,988 987,950" fill="white" stroke="black" stroke-width="1"/>
<text x="1025" y="955" font-size="14" font-family="Arial" text-anchor="middle">has</text>
<polygon points="1050,812 1088,850 1050,888 1012,850" fill="white" stroke="black" stroke-width="1"/>
<text x="1050" y="855" font-size="14" font-family="Arial" text-anchor="middle">has</text>
<line x1="725" y1="200" x2="640" y2="110" stroke="#666" stroke-width="1"/>
<ellipse cx="640" cy="110" rx="49.8" ry="22" fill="white" stroke="#444" stroke-width="1"/>
<text x="640" y="115" font-size="12" font-family="Arial" text-anchor="middle" font-weight="normal">user_name</text>
<line x1="800" y1="172.5" x2="800" y2="90" stroke="#666" stroke-width="1"/>
<ellipse cx="800" cy="90" rx="45" ry="22" fill="white" stroke="#444" stroke-width="1"/>
<text x="800" y="95" font-size="12" font-family="Arial" text-anchor="middle" font-weight="normal">email</text>
<line x1="875" y1="200" x2="960" y2="110" stroke="#666" stroke-width="1"/>
<ellipse cx="960" cy="110" rx="45" ry="22" fill="white" stroke="#444" stroke-width="1"/>
<text x="960" y="115" font-size="12" font-family="Arial" text-anchor="middle" font-weight="bold">user_id</text>
<line x1="935.5" y1="117" x2="984.5" y2="117" stroke="black" stroke-width="1.2"/>
<line x1="725" y1="500" x2="620" y2="460" stroke="#666" stroke-width="1"/>
<ellipse cx="620" cy="460" rx="62.4" ry="22" fill="white" stroke="#444" stroke-width="1"/>
<text x="620" y="465" font-size="12" font-family="Arial" text-anchor="middle" font-weight="normal">booking_date</text>
<line x1="725" y1="500" x2="620" y2="540" stroke="#666" stroke-width="1"/>
<ellipse cx="620" cy="540" rx="45" ry="22" fill="white" stroke="#444" stroke-width="1"/>
<text x="620" y="545" font-size="12" font-family="Arial" text-anchor="middle" font-weight="normal">seats</text>
<line x1="875" y1="500" x2="980" y2="460" stroke="#666" stroke-width="1"/>
<ellipse cx="980" cy="460" rx="54" ry="22" fill="white" stroke="#444" stroke-width="1"/>
<text x="980" y="465" font-size="12" font-family="Arial" text-anchor="middle" font-weight="bold">booking_id</text>
<line x1="945" y1="467" x2="1015" y2="467" stroke="black" stroke-width="1.2"/>
<line x1="875" y1="500" x2="980" y2="520" stroke="#666" stroke-width="1"/>
<ellipse cx="980" cy="520" rx="45" ry="22" fill="white" stroke="#444" stroke-width="1"/>
<text x="980" y="525" font-size="12" font-family="Arial" text-anchor="middle" font-weight="normal">route</text>
<line x1="875" y1="500" x2="980" y2="580" stroke="#666" stroke-width="1"/>
<ellipse cx="980" cy="580" rx="83.4" ry="22" fill="white" stroke="#444" stroke-width="1"/>
<text x="980" y="585" font-size="12" font-family="Arial" text-anchor="middle" font-weight="normal">booking_reference</text>
<line x1="275" y1="500" x2="170" y2="450" stroke="#666" stroke-width="1"/>
<ellipse cx="170" cy="450" rx="62.4" ry="22" fill="white" stroke="#444" stroke-width="1"/>
<text x="170" y="455" font-size="12" font-family="Arial" text-anchor="middle" font-weight="normal">service_name</text>
<line x1="275" y1="500" x2="170" y2="540" stroke="#666" stroke-width="1"/>
<ellipse cx="170" cy="540" rx="58.2" ry="22" fill="white" stroke="#444" stroke-width="1"/>
<text x="170" y="545" font-size="12" font-family="Arial" text-anchor="middle" font-weight="normal">description</text>
<line x1="425" y1="500" x2="480" y2="450" stroke="#666" stroke-width="1"/>
<ellipse cx="480" cy="450" rx="49.8" ry="22" fill="white" stroke="#444" stroke-width="1"/>
<text x="480" y="455" font-size="12" font-family="Arial" text-anchor="middle" font-weight="bold">rental_id</text>
<line x1="448.5" y1="457" x2="511.5" y2="457" stroke="black" stroke-width="1.2"/>
<line x1="425" y1="500" x2="480" y2="540" stroke="#666" stroke-width="1"/>
<ellipse cx="480" cy="540" rx="54" ry="22" fill="white" stroke="#444" stroke-width="1"/>
<text x="480" y="545" font-size="12" font-family="Arial" text-anchor="middle" font-weight="normal">daily_rate</text>
<line x1="275" y1="900" x2="170" y2="850" stroke="#666" stroke-width="1"/>
<ellipse cx="170" cy="850" rx="54" ry="22" fill="white" stroke="#444" stroke-width="1"/>
<text x="170" y="855" font-size="12" font-family="Arial" text-anchor="middle" font-weight="bold">vehicle_id</text>
<line x1="135" y1="857" x2="205" y2="857" stroke="black" stroke-width="1.2"/>
<line x1="275" y1="900" x2="170" y2="940" stroke="#666" stroke-width="1"/>
<ellipse cx="170" cy="940" rx="45.6" ry="22" fill="white" stroke="#444" stroke-width="1"/>
<text x="170" y="945" font-size="12" font-family="Arial" text-anchor="middle" font-weight="normal">category</text>
<line x1="425" y1="900" x2="490" y2="850" stroke="#666" stroke-width="1"/>
<ellipse cx="490" cy="850" rx="54" ry="22" fill="white" stroke="#444" stroke-width="1"/>
<text x="490" y="855" font-size="12" font-family="Arial" text-anchor="middle" font-weight="normal">model_name</text>
<line x1="350" y1="927.5" x2="390" y2="1020" stroke="#666" stroke-width="1"/>
<ellipse cx="390" cy="1020" rx="54" ry="22" fill="white" stroke="#444" stroke-width="1"/>
<text x="390" y="1025" font-size="12" font-family="Arial" text-anchor="middle" font-weight="normal">daily_rate</text>
<line x1="1175" y1="500" x2="1120" y2="440" stroke="#666" stroke-width="1"/>
<ellipse cx="1120" cy="440" rx="45" ry="22" fill="white" stroke="#444" stroke-width="1"/>
<text x="1120" y="445" font-size="12" font-family="Arial" text-anchor="middle" font-weight="normal">price</text>
<line x1="1175" y1="500" x2="1120" y2="520" stroke="#666" stroke-width="1"/>
<ellipse cx="1120" cy="520" rx="45" ry="22" fill="white" stroke="#444" stroke-width="1"/>
<text x="1120" y="525" font-size="12" font-family="Arial" text-anchor="middle" font-weight="normal">hotel</text>
<line x1="1325" y1="500" x2="1430" y2="440" stroke="#666" stroke-width="1"/>
<ellipse cx="1430" cy="440" rx="54" ry="22" fill="white" stroke="#444" stroke-width="1"/>
<text x="1430" y="445" font-size="12" font-family="Arial" text-anchor="middle" font-weight="bold">package_id</text>
<line x1="1395" y1="447" x2="1465" y2="447" stroke="black" stroke-width="1.2"/>
<line x1="1325" y1="500" x2="1430" y2="520" stroke="#666" stroke-width="1"/>
<ellipse cx="1430" cy="520" rx="62.4" ry="22" fill="white" stroke="#444" stroke-width="1"/>
<text x="1430" y="525" font-size="12" font-family="Arial" text-anchor="middle" font-weight="normal">booking_date</text>
<line x1="1325" y1="900" x2="1380" y2="840" stroke="#666" stroke-width="1"/>
<ellipse cx="1380" cy="840" rx="45" ry="22" fill="white" stroke="#444" stroke-width="1"/>
<text x="1380" y="845" font-size="12" font-family="Arial" text-anchor="middle" font-weight="bold">plan_id</text>
<line x1="1355.5" y1="847" x2="1404.5" y2="847" stroke="black" stroke-width="1.2"/>
<line x1="1175" y1="900" x2="1120" y2="840" stroke="#666" stroke-width="1"/>
<ellipse cx="1120" cy="840" rx="58.2" ry="22" fill="white" stroke="#444" stroke-width="1"/>
<text x="1120" y="845" font-size="12" font-family="Arial" text-anchor="middle" font-weight="normal">destination</text>
<line x1="1325" y1="900" x2="1420" y2="920" stroke="#666" stroke-width="1"/>
<ellipse cx="1420" cy="920" rx="45" ry="22" fill="white" stroke="#444" stroke-width="1"/>
<text x="1420" y="925" font-size="12" font-family="Arial" text-anchor="middle" font-weight="normal">budget</text>
<line x1="1325" y1="900" x2="1420" y2="980" stroke="#666" stroke-width="1"/>
<ellipse cx="1420" cy="980" rx="45.6" ry="22" fill="white" stroke="#444" stroke-width="1"/>
<text x="1420" y="985" font-size="12" font-family="Arial" text-anchor="middle" font-weight="normal">duration</text>
<line x1="1250" y1="927.5" x2="1200" y2="1010" stroke="#666" stroke-width="1"/>
<ellipse cx="1200" cy="1010" rx="62.4" ry="22" fill="white" stroke="#444" stroke-width="1"/>
<text x="1200" y="1015" font-size="12" font-family="Arial" text-anchor="middle" font-weight="normal">travel_style</text>
<line x1="725" y1="950" x2="600" y2="1050" stroke="#666" stroke-width="1"/>
<ellipse cx="600" cy="1050" rx="70.8" ry="22" fill="white" stroke="#444" stroke-width="1"/>
<text x="600" y="1055" font-size="12" font-family="Arial" text-anchor="middle" font-weight="normal">payment_method</text>
<line x1="800" y1="977.5" x2="650" y2="1100" stroke="#666" stroke-width="1"/>
<ellipse cx="650" cy="1100" rx="91.8" ry="22" fill="white" stroke="#444" stroke-width="1"/>
<text x="650" y="1105" font-size="12" font-family="Arial" text-anchor="middle" font-weight="normal">additional_services</text>
<line x1="800" y1="977.5" x2="800" y2="1110" stroke="#666" stroke-width="1"/>
<ellipse cx="800" cy="1110" rx="54" ry="22" fill="white" stroke="#444" stroke-width="1"/>
<text x="800" y="1115" font-size="12" font-family="Arial" text-anchor="middle" font-weight="bold">payment_id</text>
<line x1="765" y1="1117" x2="835" y2="1117" stroke="black" stroke-width="1.2"/>
<line x1="800" y1="977.5" x2="950" y2="1100" stroke="#666" stroke-width="1"/>
<ellipse cx="950" cy="1100" rx="54" ry="22" fill="white" stroke="#444" stroke-width="1"/>
<text x="950" y="1105" font-size="12" font-family="Arial" text-anchor="middle" font-weight="normal">total_cost</text>
<line x1="875" y1="950" x2="1000" y2="1050" stroke="#666" stroke-width="1"/>
<ellipse cx="1000" cy="1050" rx="70.8" ry="22" fill="white" stroke="#444" stroke-width="1"/>
<text x="1000" y="1055" font-size="12" font-family="Arial" text-anchor="middle" font-weight="normal">payment_status</text>
<rect x="725" y="172.5" width="150" height="55" fill="white" stroke="black" stroke-width="1.5"/>
<text x="800" y="206" font-size="17" font-family="Arial" text-anchor="middle" font-weight="bold">User</text>
<rect x="725" y="472.5" width="150" height="55" fill="white" stroke="black" stroke-width="1.5"/>
<text x="800" y="506" font-size="17" font-family="Arial" text-anchor="middle" font-weight="bold">Bus Booking</text>
<rect x="275" y="472.5" width="150" height="55" fill="white" stroke="black" stroke-width="1.5"/>
<text x="350" y="506" font-size="17" font-family="Arial" text-anchor="middle" font-weight="bold">Rental Service</text>
<rect x="1175" y="472.5" width="150" height="55" fill="white" stroke="black" stroke-width="1.5"/>
<text x="1250" y="506" font-size="17" font-family="Arial" text-anchor="middle" font-weight="bold">Package</text>
<rect x="275" y="872.5" width="150" height="55" fill="white" stroke="black" stroke-width="1.5"/>
<text x="350" y="906" font-size="17" font-family="Arial" text-anchor="middle" font-weight="bold">Rental Vehicle</text>
<rect x="725" y="922.5" width="150" height="55" fill="white" stroke="black" stroke-width="1.5"/>
<text x="800" y="956" font-size="17" font-family="Arial" text-anchor="middle" font-weight="bold">Payments</text>
<rect x="1175" y="872.5" width="150" height="55" fill="white" stroke="black" stroke-width="1.5"/>
<text x="1250" y="906" font-size="17" font-family="Arial" text-anchor="middle" font-weight="bold">AI Planner</text>
<text x="800" y="1160" font-size="22" font-family="Times New Roman" font-weight="bold" text-anchor="middle">Fig 3.2.2</text>
</svg>
